<svg width="20" height="20" viewBox="0 0 20 20" fill="none" xmlns="http://www.w3.org/2000/svg">
<path fill-rule="evenodd" clip-rule="evenodd" d="M11.4452 6.47169C11.1118 6.13503 11.1118 5.5892 11.4452 5.25254C11.7785 4.91588 12.319 4.91588 12.6524 5.25254L16.75 9.39047C16.8423 9.48368 16.909 9.59292 16.9502 9.70931C16.9819 9.7989 16.9985 9.89274 16.9999 9.98677C17 9.99123 17 9.99568 17 10.0001C17 10.1375 16.9682 10.2674 16.9116 10.3827C16.8884 10.4299 16.8608 10.4754 16.8285 10.5185C16.8023 10.5536 16.7735 10.5867 16.7423 10.6174L12.6524 14.7476C12.319 15.0842 11.7785 15.0842 11.4452 14.7476C11.1118 14.4109 11.1118 13.8651 11.4452 13.5284L14.0853 10.8622H3.85367C3.38221 10.8622 3.00002 10.4762 3.00002 10.0001C3.00002 9.52403 3.38221 9.13807 3.85367 9.13807H14.0855L11.4452 6.47169Z" fill="#EB9C00"/>
</svg>
